# xmcd
#
# Track frame offsets:
#	150
#	18312
#	34147
#	50575
#
# Disc length: 1045 seconds
#
# Revision: 1
# Processed by: cddbd v1.5.1PL0 Copyright (c) Steve Scherf et al.
# Submitted via: EasyCDDAExtractor 7.0.5.1
#
DISCID=2b041304
DTITLE=Full Intention - You Are Somebody
DYEAR=1998
DGENRE=House
TTITLE0=Original Mix (edit)
TTITLE1=London Mix (Edit)
TTITLE2=Be What You Want (Radio Mix)
TTITLE3=America (I Love America) (Jason Nivens Mix)
EXTD=
EXTT0=
EXTT1=
EXTT2=
EXTT3=
PLAYORDER=
